adventprofmm_reg_krn_test_reduction_1_anchor.ufo
<glyph name="parenleft" format="1">
  <advance width="145"/>
  <unicode hex="0028"/>
  <outline>
    <contour>
      <point x="132" y="707" type="curve" name="hr00"/>
      <point x="115" y="741" type="line"/>
      <point x="52" y="706"/>
      <point x="20" y="659"/>
      <point x="20" y="568" type="curve" smooth="yes"/>
      <point x="20" y="64" type="line" smooth="yes"/>
      <point x="20" y="-53"/>
      <point x="69" y="-74"/>
      <point x="115" y="-108" type="curve"/>
      <point x="132" y="-74" type="line"/>
      <point x="91" y="-44"/>
      <point x="71" y="-1"/>
      <point x="71" y="56" type="curve" smooth="yes"/>
      <point x="71" y="230"/>
      <point x="71" y="403"/>
      <point x="71" y="577" type="curve" smooth="yes"/>
      <point x="71" y="634"/>
      <point x="91" y="677"/>
    </contour>
  </outline>
</glyph>
<glyph name="period" format="1">
  <advance width="95"/>
  <unicode hex="002E"/>
  <outline>
    <contour>
      <point x="47" y="52" type="curve" name="hr00" smooth="yes"/>
      <point x="31" y="52"/>
      <point x="17" y="39"/>
      <point x="17" y="22" type="curve" smooth="yes"/>
      <point x="17" y="5"/>
      <point x="31" y="-8"/>
      <point x="47" y="-8" type="curve" smooth="yes"/>
      <point x="64" y="-8"/>
      <point x="78" y="5"/>
      <point x="78" y="22" type="curve" smooth="yes"/>
      <point x="78" y="39"/>
      <point x="64" y="52"/>
    </contour>
  </outline>
</glyph>
<glyph name="slash" format="1">
  <advance width="371"/>
  <unicode hex="002F"/>
  <outline>
    <contour>
      <point x="358" y="741" type="line" name="hr00"/>
      <point x="303" y="741" type="line"/>
      <point x="13" y="-103" type="line"/>
      <point x="64" y="-103" type="line"/>
    </contour>
  </outline>
</glyph>
<glyph name="seven" format="1">
  <advance width="363"/>
  <unicode hex="0037"/>
  <outline>
    <contour>
      <point x="364" y="635" type="line" name="hr00"/>
      <point x="8" y="635" type="line"/>
      <point x="8" y="583" type="line"/>
      <point x="306" y="583" type="line"/>
      <point x="18" y="0" type="line"/>
      <point x="75" y="0" type="line"/>
      <point x="364" y="585" type="line"/>
    </contour>
  </outline>
</glyph>
<glyph name="question" format="1">
  <advance width="349"/>
  <unicode hex="003F"/>
  <outline>
    <contour>
      <point x="15" y="482" type="curve"/>
      <point x="66" y="482" type="line"/>
      <point x="66" y="560"/>
      <point x="121" y="596"/>
      <point x="176" y="595" type="curve"/>
      <point x="229" y="593"/>
      <point x="283" y="556"/>
      <point x="283" y="485" type="curve" smooth="yes"/>
      <point x="283" y="425"/>
      <point x="246" y="392"/>
      <point x="212" y="353" type="curve" smooth="yes"/>
      <point x="178" y="314"/>
      <point x="142" y="272"/>
      <point x="142" y="192" type="curve" smooth="yes"/>
      <point x="142" y="108" type="line"/>
      <point x="188" y="108" type="line"/>
      <point x="188" y="134"/>
      <point x="188" y="161"/>
      <point x="188" y="187" type="curve" smooth="yes"/>
      <point x="188" y="263"/>
      <point x="223" y="291"/>
      <point x="258" y="332" type="curve" smooth="yes"/>
      <point x="298" y="379"/>
      <point x="333" y="420"/>
      <point x="333" y="487" type="curve" smooth="yes"/>
      <point x="333" y="584"/>
      <point x="256" y="641"/>
      <point x="176" y="643" type="curve" smooth="yes"/>
      <point x="96" y="644"/>
      <point x="15" y="593"/>
    </contour>
    <contour>
      <point x="166" y="52" type="curve" name="hr01" smooth="yes"/>
      <point x="149" y="52"/>
      <point x="135" y="39"/>
      <point x="135" y="22" type="curve" smooth="yes"/>
      <point x="135" y="5"/>
      <point x="149" y="-8"/>
      <point x="166" y="-8" type="curve" smooth="yes"/>
      <point x="182" y="-8"/>
      <point x="196" y="5"/>
      <point x="196" y="22" type="curve" smooth="yes"/>
      <point x="196" y="39"/>
      <point x="182" y="52"/>
    </contour>
  </outline>
</glyph>
<glyph name="Q" format="1">
  <advance width="411"/>
  <unicode hex="0051"/>
  <outline>
    <contour>
      <point x="14" y="460" type="curve" name="hr00"/>
      <point x="14" y="168" type="line" smooth="yes"/>
      <point x="14" y="51"/>
      <point x="98" y="-10"/>
      <point x="205" y="-10" type="curve" smooth="yes"/>
      <point x="317" y="-10"/>
      <point x="395" y="58"/>
      <point x="395" y="168" type="curve" smooth="yes"/>
      <point x="395" y="459" type="line" smooth="yes"/>
      <point x="395" y="577"/>
      <point x="326" y="649"/>
      <point x="206" y="649" type="curve" smooth="yes"/>
      <point x="86" y="649"/>
      <point x="14" y="584"/>
    </contour>
    <contour>
      <point x="65" y="169" type="curve"/>
      <point x="65" y="468" type="line" smooth="yes"/>
      <point x="65" y="556"/>
      <point x="120" y="601"/>
      <point x="204" y="601" type="curve" smooth="yes"/>
      <point x="289" y="601"/>
      <point x="345" y="556"/>
      <point x="345" y="468" type="curve" smooth="yes"/>
      <point x="345" y="169" type="line" smooth="yes"/>
      <point x="345" y="80"/>
      <point x="287" y="38"/>
      <point x="204" y="38" type="curve" smooth="yes"/>
      <point x="124" y="38"/>
      <point x="65" y="82"/>
    </contour>
    <contour>
      <point x="228" y="45" type="curve" smooth="yes"/>
      <point x="228" y="82"/>
      <point x="228" y="120"/>
      <point x="228" y="157" type="curve"/>
      <point x="177" y="157" type="line"/>
      <point x="177" y="120"/>
      <point x="177" y="83"/>
      <point x="177" y="46" type="curve" smooth="yes"/>
      <point x="177" y="-55"/>
      <point x="230" y="-97"/>
      <point x="336" y="-97" type="curve"/>
      <point x="342" y="-55" type="line"/>
      <point x="268" y="-56"/>
      <point x="228" y="-30"/>
    </contour>
  </outline>
</glyph>
<glyph name="bracketleft" format="1">
  <advance width="180"/>
  <unicode hex="005B"/>
  <outline>
    <contour>
      <point x="167" y="741" type="line" name="hr00"/>
      <point x="21" y="741" type="line"/>
      <point x="21" y="-103" type="line"/>
      <point x="167" y="-103" type="line"/>
      <point x="167" y="-63" type="line"/>
      <point x="72" y="-54" type="line"/>
      <point x="72" y="691" type="line"/>
      <point x="167" y="700" type="line"/>
    </contour>
  </outline>
</glyph>
<glyph name="k" format="1">
  <advance width="356"/>
  <unicode hex="006B"/>
  <outline>
    <contour>
      <point x="155" y="319" type="curve" name="hr00"/>
      <point x="289" y="436" type="line"/>
      <point x="253" y="471" type="line"/>
      <point x="71" y="304" type="line"/>
      <point x="71" y="635" type="line"/>
      <point x="20" y="635" type="line"/>
      <point x="20" y="0" type="line"/>
      <point x="71" y="0" type="line"/>
      <point x="71" y="247" type="line"/>
      <point x="118" y="287" type="line"/>
      <point x="292" y="0" type="line"/>
      <point x="353" y="0" type="line"/>
      <point x="262" y="144"/>
      <point x="195" y="251"/>
    </contour>
  </outline>
</glyph>
<glyph name="p" format="1">
  <advance width="367"/>
  <unicode hex="0070"/>
  <outline>
    <contour>
      <point x="354" y="159" type="curve" name="hr00"/>
      <point x="354" y="314" type="line" smooth="yes"/>
      <point x="354" y="409"/>
      <point x="299" y="466"/>
      <point x="199" y="462" type="curve" smooth="yes"/>
      <point x="155" y="460"/>
      <point x="109" y="443"/>
      <point x="70" y="410" type="curve"/>
      <point x="70" y="453" type="line"/>
      <point x="18" y="453" type="line"/>
      <point x="18" y="-181" type="line"/>
      <point x="70" y="-193" type="line"/>
      <point x="70" y="55" type="line"/>
      <point x="91" y="18"/>
      <point x="143" y="-11"/>
      <point x="199" y="-11" type="curve" smooth="yes"/>
      <point x="300" y="-11"/>
      <point x="354" y="48"/>
    </contour>
    <contour>
      <point x="302" y="311" type="curve"/>
      <point x="302" y="151" type="line" smooth="yes"/>
      <point x="302" y="75"/>
      <point x="264" y="36"/>
      <point x="196" y="36" type="curve" smooth="yes"/>
      <point x="126" y="36"/>
      <point x="70" y="80"/>
      <point x="70" y="157" type="curve" smooth="yes"/>
      <point x="70" y="356" type="line"/>
      <point x="97" y="394"/>
      <point x="148" y="413"/>
      <point x="188" y="416" type="curve" smooth="yes"/>
      <point x="246" y="421"/>
      <point x="302" y="393"/>
    </contour>
  </outline>
</glyph>
<glyph name="r" format="1">
  <advance width="267"/>
  <unicode hex="0072"/>
  <outline>
    <contour>
      <point x="260" y="417" type="curve" name="hr00"/>
      <point x="264" y="461" type="line"/>
      <point x="264" y="461"/>
      <point x="245" y="465"/>
      <point x="223" y="464" type="curve" smooth="yes"/>
      <point x="157" y="461"/>
      <point x="113" y="444"/>
      <point x="68" y="424" type="curve"/>
      <point x="68" y="454" type="line"/>
      <point x="17" y="454" type="line"/>
      <point x="17" y="0" type="line"/>
      <point x="68" y="0" type="line"/>
      <point x="68" y="371" type="line"/>
      <point x="102" y="394"/>
      <point x="170" y="415"/>
      <point x="222" y="418" type="curve" smooth="yes"/>
      <point x="241" y="419"/>
      <point x="260" y="417"/>
    </contour>
  </outline>
</glyph>
<glyph name="s" format="1">
  <advance width="349"/>
  <unicode hex="0073"/>
  <outline>
    <contour>
      <point x="278" y="398" type="curve" name="hr00"/>
      <point x="299" y="432" type="line"/>
      <point x="253" y="458"/>
      <point x="216" y="465"/>
      <point x="179" y="464" type="curve" smooth="yes"/>
      <point x="144" y="464"/>
      <point x="111" y="455"/>
      <point x="85" y="438" type="curve" smooth="yes"/>
      <point x="50" y="415"/>
      <point x="29" y="378"/>
      <point x="33" y="329" type="curve"/>
      <point x="37" y="294"/>
      <point x="57" y="271"/>
      <point x="83" y="252" type="curve"/>
      <point x="110" y="234"/>
      <point x="143" y="222"/>
      <point x="175" y="210" type="curve" smooth="yes"/>
      <point x="206" y="198"/>
      <point x="236" y="186"/>
      <point x="257" y="171" type="curve" smooth="yes"/>
      <point x="277" y="156"/>
      <point x="290" y="137"/>
      <point x="289" y="111" type="curve" smooth="yes"/>
      <point x="289" y="86"/>
      <point x="275" y="66"/>
      <point x="255" y="52" type="curve" smooth="yes"/>
      <point x="235" y="38"/>
      <point x="208" y="31"/>
      <point x="179" y="31" type="curve" smooth="yes"/>
      <point x="152" y="31"/>
      <point x="128" y="36"/>
      <point x="107" y="44" type="curve" smooth="yes"/>
      <point x="78" y="55"/>
      <point x="55" y="73"/>
      <point x="37" y="91" type="curve"/>
      <point x="9" y="62" type="line"/>
      <point x="32" y="35"/>
      <point x="59" y="16"/>
      <point x="87" y="4" type="curve" smooth="yes"/>
      <point x="117" y="-10"/>
      <point x="149" y="-15"/>
      <point x="179" y="-16" type="curve"/>
      <point x="215" y="-16"/>
      <point x="249" y="-8"/>
      <point x="276" y="9" type="curve" smooth="yes"/>
      <point x="314" y="33"/>
      <point x="339" y="72"/>
      <point x="336" y="121" type="curve" smooth="yes"/>
      <point x="334" y="155"/>
      <point x="319" y="179"/>
      <point x="298" y="198" type="curve" smooth="yes"/>
      <point x="271" y="222"/>
      <point x="233" y="237"/>
      <point x="197" y="251" type="curve" smooth="yes"/>
      <point x="169" y="261"/>
      <point x="142" y="271"/>
      <point x="120" y="283" type="curve" smooth="yes"/>
      <point x="99" y="295"/>
      <point x="84" y="310"/>
      <point x="80" y="331" type="curve" smooth="yes"/>
      <point x="75" y="362"/>
      <point x="88" y="385"/>
      <point x="110" y="400" type="curve" smooth="yes"/>
      <point x="129" y="413"/>
      <point x="154" y="420"/>
      <point x="181" y="421" type="curve" smooth="yes"/>
      <point x="214" y="422"/>
      <point x="250" y="414"/>
    </contour>
  </outline>
</glyph>
<glyph name="exclamdown" format="1">
  <advance width="100"/>
  <unicode hex="00A1"/>
  <outline>
    <contour>
      <point x="80" y="33" type="curve" name="hr00"/>
      <point x="72" y="535" type="line"/>
      <point x="29" y="535" type="line"/>
      <point x="20" y="34" type="line" smooth="yes"/>
      <point x="20" y="11"/>
      <point x="30" y="0"/>
      <point x="50" y="0" type="curve" smooth="yes"/>
      <point x="70" y="0"/>
      <point x="80" y="11"/>
    </contour>
    <contour>
      <point x="80" y="613" type="curve" smooth="yes"/>
      <point x="80" y="630"/>
      <point x="67" y="643"/>
      <point x="50" y="643" type="curve" smooth="yes"/>
      <point x="33" y="643"/>
      <point x="19" y="630"/>
      <point x="19" y="613" type="curve" smooth="yes"/>
      <point x="19" y="596"/>
      <point x="33" y="583"/>
      <point x="50" y="583" type="curve" smooth="yes"/>
      <point x="67" y="583"/>
      <point x="80" y="596"/>
    </contour>
  </outline>
</glyph>
<glyph name="overscore" format="1">
  <advance width="340"/>
  <unicode hex="00AF"/>
  <outline>
    <contour>
      <point x="269" y="614" type="line" name="hr00"/>
      <point x="69" y="614" type="line"/>
      <point x="69" y="561" type="line"/>
      <point x="269" y="561" type="line"/>
    </contour>
  </outline>
</glyph>
<glyph name="acute" format="1">
  <advance width="216"/>
  <unicode hex="00B4"/>
  <outline>
    <contour>
      <point x="131" y="620" type="line" name="hr00"/>
      <point x="143" y="633"/>
      <point x="141" y="654"/>
      <point x="125" y="663" type="curve" smooth="yes"/>
      <point x="109" y="672"/>
      <point x="91" y="662"/>
      <point x="85" y="645" type="curve" smooth="yes"/>
      <point x="51" y="548" type="line"/>
      <point x="83" y="548" type="line"/>
    </contour>
    <contour>
      <point x="67" y="679" type="move" name="top"/>
    </contour>
    <contour>
      <point x="67" y="501" type="move" name="_top"/>
    </contour>
  </outline>
</glyph>
<glyph name="paragraph" format="1">
  <advance width="535"/>
  <unicode hex="00B6"/>
  <outline>
    <contour>
      <point x="359" y="224" type="line" name="hr00"/>
      <point x="359" y="1" type="line"/>
      <point x="409" y="1" type="line"/>
      <point x="409" y="591" type="line"/>
      <point x="463" y="590" type="line"/>
      <point x="463" y="1" type="line"/>
      <point x="514" y="1" type="line"/>
      <point x="514" y="636" type="line"/>
      <point x="195" y="636" type="line" smooth="yes"/>
      <point x="80" y="636"/>
      <point x="16" y="586"/>
      <point x="16" y="431" type="curve" smooth="yes"/>
      <point x="16" y="280"/>
      <point x="76" y="224"/>
      <point x="195" y="224" type="curve" smooth="yes"/>
    </contour>
    <contour>
      <point x="192" y="588" type="curve"/>
      <point x="359" y="588" type="line"/>
      <point x="359" y="273" type="line"/>
      <point x="192" y="273" type="line" smooth="yes"/>
      <point x="123" y="273"/>
      <point x="67" y="293"/>
      <point x="67" y="431" type="curve" smooth="yes"/>
      <point x="67" y="559"/>
      <point x="120" y="588"/>
    </contour>
  </outline>
</glyph>
<glyph name="cedilla" format="1">
  <advance width="336"/>
  <unicode hex="00B8"/>
  <outline>
    <contour>
      <point x="91" y="0" type="line" name="hr00"/>
      <point x="45" y="0" type="line"/>
      <point x="9" y="-63" type="line"/>
      <point x="21" y="-89" type="line"/>
      <point x="45" y="-87"/>
      <point x="68" y="-84"/>
      <point x="88" y="-83" type="curve"/>
      <point x="119" y="-83"/>
      <point x="141" y="-89"/>
      <point x="141" y="-121" type="curve" smooth="yes"/>
      <point x="141" y="-157"/>
      <point x="112" y="-168"/>
      <point x="76" y="-167" type="curve" smooth="yes"/>
      <point x="52" y="-167"/>
      <point x="25" y="-162"/>
      <point x="1" y="-157" type="curve"/>
      <point x="-6" y="-184"/>
      <point x="-4" y="-175"/>
      <point x="-10" y="-201" type="curve"/>
      <point x="-7" y="-201"/>
      <point x="39" y="-212"/>
      <point x="82" y="-212" type="curve" smooth="yes"/>
      <point x="154" y="-212"/>
      <point x="187" y="-167"/>
      <point x="186" y="-123" type="curve"/>
      <point x="186" y="-77"/>
      <point x="151" y="-32"/>
      <point x="91" y="-38" type="curve" smooth="yes"/>
      <point x="83" y="-39"/>
      <point x="75" y="-39"/>
      <point x="67" y="-40" type="curve"/>
    </contour>
  </outline>
</glyph>
<glyph name="questiondown" format="1">
  <advance width="351"/>
  <unicode hex="00BF"/>
  <outline>
    <contour>
      <point x="334" y="146" type="curve"/>
      <point x="283" y="146" type="line"/>
      <point x="283" y="69"/>
      <point x="228" y="32"/>
      <point x="173" y="34" type="curve" smooth="yes"/>
      <point x="119" y="35"/>
      <point x="66" y="73"/>
      <point x="66" y="143" type="curve" smooth="yes"/>
      <point x="66" y="204"/>
      <point x="103" y="236"/>
      <point x="137" y="275" type="curve" smooth="yes"/>
      <point x="171" y="314"/>
      <point x="207" y="357"/>
      <point x="207" y="436" type="curve" smooth="yes"/>
      <point x="207" y="520" type="line"/>
      <point x="160" y="520" type="line"/>
      <point x="160" y="494"/>
      <point x="160" y="467"/>
      <point x="160" y="441" type="curve" smooth="yes"/>
      <point x="160" y="365"/>
      <point x="126" y="337"/>
      <point x="91" y="296" type="curve" smooth="yes"/>
      <point x="51" y="250"/>
      <point x="16" y="208"/>
      <point x="16" y="141" type="curve" smooth="yes"/>
      <point x="16" y="44"/>
      <point x="93" y="-13"/>
      <point x="173" y="-14" type="curve" smooth="yes"/>
      <point x="253" y="-16"/>
      <point x="334" y="35"/>
    </contour>
    <contour>
      <point x="183" y="637" type="curve" name="hr01" smooth="yes"/>
      <point x="166" y="637"/>
      <point x="153" y="623"/>
      <point x="153" y="606" type="curve" smooth="yes"/>
      <point x="153" y="589"/>
      <point x="166" y="576"/>
      <point x="183" y="576" type="curve" smooth="yes"/>
      <point x="200" y="576"/>
      <point x="214" y="589"/>
      <point x="214" y="606" type="curve" smooth="yes"/>
      <point x="214" y="623"/>
      <point x="200" y="637"/>
    </contour>
  </outline>
</glyph>
<glyph name="Ccedilla" format="1">
  <advance width="352"/>
  <unicode hex="00C7"/>
  <outline>
    <contour>
      <point x="304" y="579" type="curve"/>
      <point x="319" y="614" type="line"/>
      <point x="280" y="634"/>
      <point x="236" y="644"/>
      <point x="190" y="644" type="curve" smooth="yes"/>
      <point x="153" y="644"/>
      <point x="120" y="636"/>
      <point x="93" y="621" type="curve"/>
      <point x="40" y="588"/>
      <point x="14" y="536"/>
      <point x="14" y="457" type="curve" smooth="yes"/>
      <point x="14" y="166" type="line" smooth="yes"/>
      <point x="14" y="90"/>
      <point x="44" y="38"/>
      <point x="88" y="14" type="curve" smooth="yes"/>
      <point x="132" y="-9"/>
      <point x="176" y="-9"/>
      <point x="195" y="-9" type="curve" smooth="yes"/>
      <point x="241" y="-9"/>
      <point x="290" y="1"/>
      <point x="342" y="21" type="curve"/>
      <point x="331" y="63" type="line"/>
      <point x="279" y="45"/>
      <point x="235" y="36"/>
      <point x="199" y="36" type="curve" smooth="yes"/>
      <point x="157" y="36"/>
      <point x="128" y="44"/>
      <point x="107" y="59" type="curve" smooth="yes"/>
      <point x="75" y="82"/>
      <point x="65" y="120"/>
      <point x="65" y="168" type="curve" smooth="yes"/>
      <point x="65" y="465" type="line" smooth="yes"/>
      <point x="65" y="516"/>
      <point x="80" y="552"/>
      <point x="111" y="574" type="curve" smooth="yes"/>
      <point x="134" y="590"/>
      <point x="166" y="598"/>
      <point x="206" y="598" type="curve" smooth="yes"/>
      <point x="237" y="598"/>
      <point x="270" y="592"/>
    </contour>
    <contour>
      <point x="219" y="-44" type="curve" name="hr01" smooth="yes"/>
      <point x="211" y="-45"/>
      <point x="202" y="-45"/>
      <point x="194" y="-46" type="curve"/>
      <point x="218" y="-6" type="line"/>
      <point x="173" y="-6" type="line"/>
      <point x="136" y="-68" type="line"/>
      <point x="149" y="-95" type="line"/>
      <point x="173" y="-93"/>
      <point x="196" y="-89"/>
      <point x="216" y="-89" type="curve" smooth="yes"/>
      <point x="247" y="-88"/>
      <point x="269" y="-95"/>
      <point x="269" y="-126" type="curve" smooth="yes"/>
      <point x="269" y="-163"/>
      <point x="240" y="-173"/>
      <point x="204" y="-173" type="curve" smooth="yes"/>
      <point x="180" y="-173"/>
      <point x="153" y="-168"/>
      <point x="129" y="-162" type="curve"/>
      <point x="122" y="-189"/>
      <point x="124" y="-181"/>
      <point x="118" y="-206" type="curve"/>
      <point x="120" y="-207"/>
      <point x="167" y="-218"/>
      <point x="210" y="-218" type="curve" smooth="yes"/>
      <point x="282" y="-218"/>
      <point x="314" y="-173"/>
      <point x="314" y="-129" type="curve" smooth="yes"/>
      <point x="314" y="-83"/>
      <point x="279" y="-37"/>
    </contour>
  </outline>
</glyph>
<glyph name="Eacute" format="1">
  <advance width="334"/>
  <unicode hex="00C9"/>
  <outline>
    <contour>
      <point x="320" y="45" type="line" name="hr00"/>
      <point x="70" y="45" type="line"/>
      <point x="70" y="324" type="line"/>
      <point x="226" y="324" type="line"/>
      <point x="243" y="374" type="line"/>
      <point x="70" y="374" type="line"/>
      <point x="70" y="587" type="line"/>
      <point x="322" y="587" type="line"/>
      <point x="322" y="635" type="line"/>
      <point x="19" y="635" type="line"/>
      <point x="19" y="0" type="line"/>
      <point x="320" y="0" type="line"/>
    </contour>
    <contour>
      <point x="190" y="780" type="curve"/>
      <point x="153" y="675" type="line"/>
      <point x="188" y="675" type="line"/>
      <point x="240" y="753" type="line"/>
      <point x="252" y="767"/>
      <point x="251" y="790"/>
      <point x="233" y="800" type="curve" smooth="yes"/>
      <point x="216" y="809"/>
      <point x="196" y="799"/>
    </contour>
  </outline>
</glyph>
<glyph name="Ntilde" format="1">
  <advance width="485"/>
  <unicode hex="00D1"/>
  <outline>
    <contour>
      <point x="414" y="93" type="line"/>
      <point x="70" y="635" type="line"/>
      <point x="19" y="635" type="line"/>
      <point x="19" y="0" type="line"/>
      <point x="70" y="0" type="line"/>
      <point x="70" y="541" type="line"/>
      <point x="414" y="0" type="line"/>
      <point x="465" y="0" type="line"/>
      <point x="465" y="635" type="line"/>
      <point x="414" y="635" type="line"/>
    </contour>
    <contour>
      <point x="360" y="711" type="curve"/>
      <point x="341" y="754" type="line"/>
      <point x="329" y="744"/>
      <point x="311" y="736"/>
      <point x="294" y="736" type="curve" smooth="yes"/>
      <point x="281" y="736"/>
      <point x="239" y="759"/>
      <point x="195" y="759" type="curve" name="hr01" smooth="yes"/>
      <point x="171" y="759"/>
      <point x="145" y="753"/>
      <point x="124" y="730" type="curve"/>
      <point x="145" y="688" type="line"/>
      <point x="158" y="699"/>
      <point x="168" y="705"/>
      <point x="186" y="706" type="curve" smooth="yes"/>
      <point x="214" y="708"/>
      <point x="254" y="684"/>
      <point x="295" y="684" type="curve" name="hr02" smooth="yes"/>
      <point x="317" y="684"/>
      <point x="339" y="691"/>
    </contour>
  </outline>
</glyph>
<glyph name="icircumflex" format="1">
  <advance width="233"/>
  <unicode hex="00EE"/>
  <outline>
    <contour>
      <point x="140" y="454" type="line" name="hr00"/>
      <point x="89" y="454" type="line"/>
      <point x="89" y="0" type="line"/>
      <point x="140" y="0" type="line"/>
    </contour>
    <contour>
      <point x="116" y="576" type="line"/>
      <point x="197" y="496" type="line"/>
      <point x="233" y="530" type="line"/>
      <point x="116" y="644" type="line"/>
      <point x="-3" y="529" type="line"/>
      <point x="32" y="494" type="line"/>
    </contour>
  </outline>
</glyph>
<glyph name="oacute" format="1">
  <advance width="358"/>
  <unicode hex="00F3"/>
  <outline>
    <contour>
      <point x="345" y="167" type="curve" name="hr00"/>
      <point x="345" y="286" type="line" smooth="yes"/>
      <point x="345" y="396"/>
      <point x="287" y="464"/>
      <point x="179" y="464" type="curve" smooth="yes"/>
      <point x="71" y="464"/>
      <point x="10" y="402"/>
      <point x="10" y="286" type="curve" smooth="yes"/>
      <point x="10" y="167" type="line" smooth="yes"/>
      <point x="10" y="68"/>
      <point x="68" y="-9"/>
      <point x="181" y="-9" type="curve" smooth="yes"/>
      <point x="293" y="-9"/>
      <point x="345" y="65"/>
    </contour>
    <contour>
      <point x="294" y="286" type="curve"/>
      <point x="294" y="158" type="line" smooth="yes"/>
      <point x="294" y="84"/>
      <point x="256" y="36"/>
      <point x="181" y="36" type="curve" smooth="yes"/>
      <point x="107" y="36"/>
      <point x="61" y="85"/>
      <point x="61" y="158" type="curve" smooth="yes"/>
      <point x="61" y="286" type="line" smooth="yes"/>
      <point x="61" y="374"/>
      <point x="101" y="418"/>
      <point x="181" y="418" type="curve" smooth="yes"/>
      <point x="259" y="418"/>
      <point x="294" y="374"/>
    </contour>
    <contour>
      <point x="196" y="595" type="curve"/>
      <point x="161" y="498" type="line"/>
      <point x="194" y="498" type="line"/>
      <point x="242" y="570" type="line"/>
      <point x="253" y="583"/>
      <point x="252" y="604"/>
      <point x="236" y="613" type="curve" smooth="yes"/>
      <point x="220" y="622"/>
      <point x="201" y="612"/>
    </contour>
  </outline>
</glyph>
<glyph name="cdotaccent" format="1">
  <advance width="314"/>
  <unicode hex="010B"/>
  <outline>
    <contour>
      <point x="286" y="391" type="curve" name="hr00"/>
      <point x="300" y="433" type="line"/>
      <point x="248" y="457"/>
      <point x="187" y="469"/>
      <point x="135" y="458" type="curve" smooth="yes"/>
      <point x="94" y="449"/>
      <point x="59" y="427"/>
      <point x="36" y="387" type="curve" smooth="yes"/>
      <point x="18" y="358"/>
      <point x="12" y="329"/>
      <point x="10" y="289" type="curve"/>
      <point x="10" y="157" type="line" smooth="yes"/>
      <point x="10" y="68"/>
      <point x="50" y="21"/>
      <point x="112" y="1" type="curve" smooth="yes"/>
      <point x="166" y="-16"/>
      <point x="241" y="-12"/>
      <point x="302" y="5" type="curve"/>
      <point x="292" y="50" type="line"/>
      <point x="292" y="50"/>
      <point x="181" y="24"/>
      <point x="123" y="47" type="curve" smooth="yes"/>
      <point x="75" y="65"/>
      <point x="60" y="108"/>
      <point x="60" y="168" type="curve" smooth="yes"/>
      <point x="60" y="277" type="line" smooth="yes"/>
      <point x="60" y="309"/>
      <point x="66" y="337"/>
      <point x="77" y="358" type="curve" smooth="yes"/>
      <point x="92" y="387"/>
      <point x="115" y="405"/>
      <point x="143" y="412" type="curve" smooth="yes"/>
      <point x="182" y="422"/>
      <point x="243" y="411"/>
    </contour>
    <contour>
      <point x="211" y="552" type="curve" smooth="yes"/>
      <point x="211" y="569"/>
      <point x="197" y="582"/>
      <point x="180" y="582" type="curve" smooth="yes"/>
      <point x="163" y="582"/>
      <point x="150" y="569"/>
      <point x="150" y="552" type="curve" smooth="yes"/>
      <point x="150" y="535"/>
      <point x="163" y="522"/>
      <point x="180" y="522" type="curve" smooth="yes"/>
      <point x="197" y="522"/>
      <point x="211" y="535"/>
    </contour>
  </outline>
</glyph>
<glyph name="ccaron" format="1">
  <advance width="317"/>
  <unicode hex="010D"/>
  <outline>
    <contour>
      <point x="287" y="391" type="curve" name="hr00"/>
      <point x="301" y="433" type="line"/>
      <point x="249" y="457"/>
      <point x="188" y="469"/>
      <point x="136" y="458" type="curve" smooth="yes"/>
      <point x="95" y="449"/>
      <point x="60" y="427"/>
      <point x="37" y="387" type="curve" smooth="yes"/>
      <point x="19" y="358"/>
      <point x="13" y="329"/>
      <point x="11" y="289" type="curve"/>
      <point x="11" y="157" type="line" smooth="yes"/>
      <point x="11" y="68"/>
      <point x="51" y="21"/>
      <point x="113" y="1" type="curve" smooth="yes"/>
      <point x="167" y="-16"/>
      <point x="242" y="-12"/>
      <point x="303" y="5" type="curve"/>
      <point x="293" y="50" type="line"/>
      <point x="293" y="50"/>
      <point x="182" y="24"/>
      <point x="124" y="47" type="curve" smooth="yes"/>
      <point x="76" y="65"/>
      <point x="61" y="108"/>
      <point x="61" y="168" type="curve" smooth="yes"/>
      <point x="61" y="277" type="line" smooth="yes"/>
      <point x="61" y="309"/>
      <point x="67" y="337"/>
      <point x="78" y="358" type="curve" smooth="yes"/>
      <point x="93" y="387"/>
      <point x="116" y="405"/>
      <point x="144" y="412" type="curve" smooth="yes"/>
      <point x="183" y="422"/>
      <point x="244" y="411"/>
    </contour>
    <contour>
      <point x="59" y="612" type="line"/>
      <point x="175" y="498" type="line"/>
      <point x="295" y="613" type="line"/>
      <point x="260" y="648" type="line"/>
      <point x="175" y="567" type="line"/>
      <point x="94" y="647" type="line"/>
    </contour>
  </outline>
</glyph>
<glyph name="Edotaccent" format="1">
  <advance width="334"/>
  <unicode hex="0116"/>
  <outline>
    <contour>
      <point x="320" y="45" type="line" name="hr00"/>
      <point x="70" y="45" type="line"/>
      <point x="70" y="324" type="line"/>
      <point x="226" y="324" type="line"/>
      <point x="243" y="374" type="line"/>
      <point x="70" y="374" type="line"/>
      <point x="70" y="587" type="line"/>
      <point x="322" y="587" type="line"/>
      <point x="322" y="635" type="line"/>
      <point x="19" y="635" type="line"/>
      <point x="19" y="0" type="line"/>
      <point x="320" y="0" type="line"/>
    </contour>
    <contour>
      <point x="181" y="760" type="curve" smooth="yes"/>
      <point x="164" y="760"/>
      <point x="151" y="746"/>
      <point x="151" y="729" type="curve" smooth="yes"/>
      <point x="151" y="713"/>
      <point x="164" y="699"/>
      <point x="181" y="699" type="curve" smooth="yes"/>
      <point x="198" y="699"/>
      <point x="212" y="713"/>
      <point x="212" y="729" type="curve" smooth="yes"/>
      <point x="212" y="746"/>
      <point x="198" y="760"/>
    </contour>
  </outline>
</glyph>
<glyph name="Eogonek" format="1">
  <advance width="380"/>
  <unicode hex="0118"/>
  <outline>
    <contour>
      <point x="321" y="45" type="line" name="hr00"/>
      <point x="71" y="45" type="line"/>
      <point x="71" y="324" type="line"/>
      <point x="227" y="324" type="line"/>
      <point x="244" y="374" type="line"/>
      <point x="71" y="374" type="line"/>
      <point x="71" y="587" type="line"/>
      <point x="323" y="587" type="line"/>
      <point x="323" y="635" type="line"/>
      <point x="20" y="635" type="line"/>
      <point x="20" y="0" type="line"/>
      <point x="321" y="0" type="line"/>
    </contour>
    <contour>
      <point x="249" y="-114" type="curve"/>
      <point x="313" y="-1" type="line"/>
      <point x="313" y="7" type="line"/>
      <point x="273" y="4" type="line"/>
      <point x="273" y="0" type="line"/>
      <point x="216" y="-101" type="line" smooth="yes"/>
      <point x="178" y="-167"/>
      <point x="223" y="-231"/>
      <point x="303" y="-208" type="curve" smooth="yes"/>
      <point x="320" y="-203"/>
      <point x="396" y="-176"/>
      <point x="398" y="-175" type="curve"/>
      <point x="382" y="-139" type="line"/>
      <point x="382" y="-139"/>
      <point x="343" y="-152"/>
      <point x="294" y="-169" type="curve" smooth="yes"/>
      <point x="249" y="-185"/>
      <point x="225" y="-156"/>
    </contour>
  </outline>
</glyph>
<glyph name="gcircumflex" format="1">
  <advance width="366"/>
  <unicode hex="011D"/>
  <outline>
    <contour>
      <point x="348" y="-58" type="curve" name="hr00"/>
      <point x="348" y="453" type="line"/>
      <point x="296" y="453" type="line"/>
      <point x="296" y="410" type="line"/>
      <point x="257" y="443"/>
      <point x="211" y="460"/>
      <point x="167" y="462" type="curve" smooth="yes"/>
      <point x="67" y="466"/>
      <point x="12" y="409"/>
      <point x="12" y="314" type="curve" smooth="yes"/>
      <point x="12" y="159" type="line" smooth="yes"/>
      <point x="12" y="48"/>
      <point x="66" y="-11"/>
      <point x="167" y="-11" type="curve" smooth="yes"/>
      <point x="222" y="-11"/>
      <point x="275" y="18"/>
      <point x="296" y="55" type="curve"/>
      <point x="296" y="-57" type="line" smooth="yes"/>
      <point x="296" y="-105"/>
      <point x="275" y="-136"/>
      <point x="235" y="-152" type="curve"/>
      <point x="250" y="-191" type="line"/>
      <point x="319" y="-169"/>
      <point x="348" y="-131"/>
    </contour>
    <contour>
      <point x="296" y="356" type="curve"/>
      <point x="296" y="157" type="line" smooth="yes"/>
      <point x="296" y="80"/>
      <point x="240" y="36"/>
      <point x="170" y="36" type="curve" smooth="yes"/>
      <point x="101" y="36"/>
      <point x="64" y="75"/>
      <point x="64" y="151" type="curve" smooth="yes"/>
      <point x="64" y="311" type="line" smooth="yes"/>
      <point x="64" y="393"/>
      <point x="120" y="421"/>
      <point x="178" y="416" type="curve" smooth="yes"/>
      <point x="218" y="413"/>
      <point x="269" y="394"/>
    </contour>
    <contour>
      <point x="189" y="579" type="line"/>
      <point x="270" y="499" type="line"/>
      <point x="305" y="534" type="line"/>
      <point x="189" y="648" type="line"/>
      <point x="69" y="533" type="line"/>
      <point x="104" y="498" type="line"/>
    </contour>
  </outline>
</glyph>
<glyph name="Hcircumflex" format="1">
  <advance width="429"/>
  <unicode hex="0124"/>
  <outline>
    <contour>
      <point x="70" y="635" type="line" name="hr00"/>
      <point x="19" y="635" type="line"/>
      <point x="19" y="0" type="line"/>
      <point x="70" y="0" type="line"/>
      <point x="70" y="324" type="line"/>
      <point x="358" y="324" type="line"/>
      <point x="358" y="0" type="line"/>
      <point x="409" y="0" type="line"/>
      <point x="409" y="635" type="line"/>
      <point x="358" y="635" type="line"/>
      <point x="358" y="374" type="line"/>
      <point x="70" y="374" type="line"/>
    </contour>
    <contour>
      <point x="215" y="754" type="line"/>
      <point x="296" y="674" type="line"/>
      <point x="331" y="709" type="line"/>
      <point x="215" y="823" type="line"/>
      <point x="95" y="707" type="line"/>
      <point x="130" y="673" type="line"/>
    </contour>
  </outline>
</glyph>
<glyph name="Hbar" format="1">
  <advance width="496"/>
  <unicode hex="0126"/>
  <outline>
    <contour>
      <point x="392" y="0" type="line" name="hr00"/>
      <point x="443" y="0" type="line"/>
      <point x="443" y="453" type="line"/>
      <point x="485" y="453" type="line"/>
      <point x="485" y="502" type="line"/>
      <point x="443" y="502" type="line"/>
      <point x="443" y="635" type="line"/>
      <point x="392" y="635" type="line"/>
      <point x="392" y="502" type="line"/>
      <point x="104" y="502" type="line"/>
      <point x="104" y="635" type="line"/>
      <point x="53" y="635" type="line"/>
      <point x="53" y="502" type="line"/>
      <point x="8" y="502" type="line"/>
      <point x="8" y="453" type="line"/>
      <point x="53" y="453" type="line"/>
      <point x="53" y="0" type="line"/>
      <point x="104" y="0" type="line"/>
      <point x="104" y="324" type="line"/>
      <point x="392" y="324" type="line"/>
    </contour>
    <contour>
      <point x="104" y="374" type="line"/>
      <point x="104" y="453" type="line"/>
      <point x="392" y="453" type="line"/>
      <point x="392" y="374" type="line"/>
    </contour>
  </outline>
</glyph>
<glyph name="Itilde" format="1">
  <advance width="210"/>
  <unicode hex="0128"/>
  <outline>
    <contour>
      <point x="84" y="0" type="line"/>
      <point x="135" y="0" type="line"/>
      <point x="135" y="635" type="line"/>
      <point x="23" y="635" type="line"/>
      <point x="23" y="590" type="line"/>
      <point x="84" y="588" type="line"/>
    </contour>
    <contour>
      <point x="225" y="701" type="curve"/>
      <point x="206" y="744" type="line"/>
      <point x="194" y="735"/>
      <point x="176" y="726"/>
      <point x="159" y="727" type="curve"/>
      <point x="146" y="726"/>
      <point x="104" y="749"/>
      <point x="60" y="750" type="curve" name="hr01" smooth="yes"/>
      <point x="36" y="750"/>
      <point x="10" y="743"/>
      <point x="-11" y="721" type="curve"/>
      <point x="10" y="678" type="line"/>
      <point x="23" y="689"/>
      <point x="33" y="696"/>
      <point x="51" y="697" type="curve" smooth="yes"/>
      <point x="79" y="698"/>
      <point x="119" y="674"/>
      <point x="160" y="674" type="curve" name="hr02" smooth="yes"/>
      <point x="182" y="674"/>
      <point x="204" y="681"/>
    </contour>
  </outline>
</glyph>
<glyph name="Iogonek" format="1">
  <advance width="198"/>
  <unicode hex="012E"/>
  <outline>
    <contour>
      <point x="80" y="0" type="line" name="hr02"/>
      <point x="131" y="0" type="line"/>
      <point x="131" y="635" type="line"/>
      <point x="18" y="635" type="line"/>
      <point x="18" y="590" type="line"/>
      <point x="80" y="588" type="line"/>
    </contour>
    <contour>
      <point x="62" y="-114" type="curve"/>
      <point x="126" y="-1" type="line"/>
      <point x="126" y="7" type="line"/>
      <point x="86" y="4" type="line"/>
      <point x="86" y="-1" type="line"/>
      <point x="29" y="-101" type="line" name="hr01" smooth="yes"/>
      <point x="-9" y="-167"/>
      <point x="36" y="-231"/>
      <point x="116" y="-208" type="curve" smooth="yes"/>
      <point x="133" y="-203"/>
      <point x="209" y="-176"/>
      <point x="211" y="-175" type="curve"/>
      <point x="195" y="-139" type="line"/>
      <point x="195" y="-139"/>
      <point x="157" y="-152"/>
      <point x="107" y="-170" type="curve" smooth="yes"/>
      <point x="62" y="-185"/>
      <point x="38" y="-156"/>
    </contour>
  </outline>
</glyph>
<glyph name="jcircumflex" format="1">
  <advance width="238"/>
  <unicode hex="0135"/>
  <outline>
    <contour>
      <point x="147" y="-57" type="curve" name="hr00"/>
      <point x="147" y="454" type="line"/>
      <point x="38" y="454" type="line"/>
      <point x="38" y="406" type="line"/>
      <point x="95" y="406" type="line"/>
      <point x="95" y="-56" type="line" smooth="yes"/>
      <point x="95" y="-82"/>
      <point x="90" y="-103"/>
      <point x="78" y="-119" type="curve" smooth="yes"/>
      <point x="68" y="-133"/>
      <point x="54" y="-144"/>
      <point x="36" y="-151" type="curve"/>
      <point x="51" y="-190" type="line"/>
      <point x="81" y="-180"/>
      <point x="102" y="-168"/>
      <point x="118" y="-151" type="curve" smooth="yes"/>
      <point x="138" y="-128"/>
      <point x="147" y="-98"/>
    </contour>
    <contour>
      <point x="121" y="577" type="line"/>
      <point x="202" y="497" type="line"/>
      <point x="238" y="532" type="line"/>
      <point x="121" y="646" type="line"/>
      <point x="2" y="531" type="line"/>
      <point x="37" y="496" type="line"/>
    </contour>
  </outline>
</glyph>
<glyph name="Kcommaaccent" format="1">
  <advance width="383"/>
  <unicode hex="0136"/>
  <outline>
    <contour>
      <point x="20" y="635" type="line" name="hr00"/>
      <point x="20" y="0" type="line"/>
      <point x="71" y="0" type="line"/>
      <point x="71" y="244" type="line"/>
      <point x="114" y="313" type="line"/>
      <point x="319" y="0" type="line"/>
      <point x="380" y="0" type="line"/>
      <point x="147" y="361" type="line"/>
      <point x="333" y="635" type="line"/>
      <point x="274" y="635" type="line"/>
      <point x="71" y="333" type="line"/>
      <point x="71" y="635" type="line"/>
    </contour>
    <contour>
      <point x="167" y="-180" type="curve"/>
      <point x="183" y="-191" type="line"/>
      <point x="201" y="-174"/>
      <point x="231" y="-139"/>
      <point x="231" y="-82" type="curve" smooth="yes"/>
      <point x="231" y="-64"/>
      <point x="217" y="-51"/>
      <point x="201" y="-51" type="curve" smooth="yes"/>
      <point x="184" y="-51"/>
      <point x="170" y="-65"/>
      <point x="170" y="-82" type="curve" smooth="yes"/>
      <point x="170" y="-97"/>
      <point x="181" y="-109"/>
      <point x="196" y="-112" type="curve"/>
      <point x="194" y="-131"/>
      <point x="187" y="-156"/>
    </contour>
  </outline>
</glyph>
<glyph name="eng" format="1">
  <advance width="368"/>
  <unicode hex="014B"/>
  <outline>
    <contour>
      <point x="352" y="-41" type="curve" name="hr00"/>
      <point x="352" y="314" type="line" smooth="yes"/>
      <point x="352" y="409"/>
      <point x="294" y="462"/>
      <point x="194" y="462" type="curve" smooth="yes"/>
      <point x="149" y="462"/>
      <point x="104" y="447"/>
      <point x="68" y="423" type="curve"/>
      <point x="68" y="453" type="line"/>
      <point x="17" y="453" type="line"/>
      <point x="17" y="0" type="line"/>
      <point x="68" y="0" type="line"/>
      <point x="68" y="385" type="line"/>
      <point x="104" y="406"/>
      <point x="143" y="416"/>
      <point x="184" y="416" type="curve" smooth="yes"/>
      <point x="241" y="416"/>
      <point x="301" y="393"/>
      <point x="301" y="311" type="curve" smooth="yes"/>
      <point x="301" y="-40" type="line" smooth="yes"/>
      <point x="301" y="-66"/>
      <point x="295" y="-87"/>
      <point x="283" y="-103" type="curve" smooth="yes"/>
      <point x="273" y="-117"/>
      <point x="259" y="-127"/>
      <point x="241" y="-134" type="curve"/>
      <point x="256" y="-173" type="line"/>
      <point x="286" y="-164"/>
      <point x="307" y="-151"/>
      <point x="323" y="-134" type="curve" smooth="yes"/>
      <point x="344" y="-112"/>
      <point x="352" y="-82"/>
    </contour>
  </outline>
</glyph>
<glyph name="Ohungarumlaut" format="1">
  <advance width="411"/>
  <unicode hex="0150"/>
  <outline>
    <contour>
      <point x="14" y="460" type="curve"/>
      <point x="14" y="168" type="line" smooth="yes"/>
      <point x="14" y="51"/>
      <point x="98" y="-10"/>
      <point x="205" y="-10" type="curve" smooth="yes"/>
      <point x="317" y="-10"/>
      <point x="395" y="58"/>
      <point x="395" y="168" type="curve" smooth="yes"/>
      <point x="395" y="459" type="line" smooth="yes"/>
      <point x="395" y="577"/>
      <point x="326" y="649"/>
      <point x="206" y="649" type="curve" smooth="yes"/>
      <point x="86" y="649"/>
      <point x="14" y="584"/>
    </contour>
    <contour>
      <point x="65" y="169" type="curve"/>
      <point x="65" y="468" type="line" smooth="yes"/>
      <point x="65" y="556"/>
      <point x="120" y="601"/>
      <point x="204" y="601" type="curve" smooth="yes"/>
      <point x="289" y="601"/>
      <point x="345" y="556"/>
      <point x="345" y="468" type="curve" smooth="yes"/>
      <point x="345" y="169" type="line" smooth="yes"/>
      <point x="345" y="80"/>
      <point x="287" y="38"/>
      <point x="204" y="38" type="curve" smooth="yes"/>
      <point x="124" y="38"/>
      <point x="65" y="82"/>
    </contour>
    <contour>
      <point x="163" y="772" type="curve" name="hr01"/>
      <point x="129" y="675" type="line"/>
      <point x="161" y="675" type="line"/>
      <point x="209" y="747" type="line"/>
      <point x="220" y="760"/>
      <point x="219" y="781"/>
      <point x="203" y="790" type="curve" smooth="yes"/>
      <point x="187" y="799"/>
      <point x="168" y="789"/>
    </contour>
    <contour>
      <point x="281" y="772" type="curve"/>
      <point x="247" y="675" type="line"/>
      <point x="279" y="675" type="line"/>
      <point x="327" y="747" type="line"/>
      <point x="339" y="760"/>
      <point x="337" y="781"/>
      <point x="321" y="790" type="curve" smooth="yes"/>
      <point x="305" y="799"/>
      <point x="286" y="789"/>
    </contour>
  </outline>
</glyph>
<glyph name="ohungarumlaut" format="1">
  <advance width="359"/>
  <unicode hex="0151"/>
  <outline>
    <contour>
      <point x="345" y="167" type="curve"/>
      <point x="345" y="286" type="line" smooth="yes"/>
      <point x="345" y="396"/>
      <point x="287" y="464"/>
      <point x="179" y="464" type="curve" smooth="yes"/>
      <point x="71" y="464"/>
      <point x="10" y="402"/>
      <point x="10" y="286" type="curve" smooth="yes"/>
      <point x="10" y="167" type="line" smooth="yes"/>
      <point x="10" y="68"/>
      <point x="68" y="-9"/>
      <point x="181" y="-9" type="curve" smooth="yes"/>
      <point x="293" y="-9"/>
      <point x="345" y="65"/>
    </contour>
    <contour>
      <point x="294" y="286" type="curve"/>
      <point x="294" y="158" type="line" smooth="yes"/>
      <point x="294" y="84"/>
      <point x="256" y="36"/>
      <point x="181" y="36" type="curve" smooth="yes"/>
      <point x="107" y="36"/>
      <point x="61" y="85"/>
      <point x="61" y="158" type="curve" smooth="yes"/>
      <point x="61" y="286" type="line" smooth="yes"/>
      <point x="61" y="374"/>
      <point x="101" y="418"/>
      <point x="181" y="418" type="curve" smooth="yes"/>
      <point x="259" y="418"/>
      <point x="294" y="374"/>
    </contour>
    <contour>
      <point x="138" y="587" type="curve" name="hr01"/>
      <point x="103" y="490" type="line"/>
      <point x="135" y="490" type="line"/>
      <point x="184" y="562" type="line"/>
      <point x="195" y="575"/>
      <point x="194" y="596"/>
      <point x="178" y="605" type="curve" smooth="yes"/>
      <point x="162" y="614"/>
      <point x="143" y="604"/>
    </contour>
    <contour>
      <point x="256" y="587" type="curve"/>
      <point x="221" y="490" type="line"/>
      <point x="254" y="490" type="line"/>
      <point x="302" y="562" type="line"/>
      <point x="313" y="575"/>
      <point x="312" y="596"/>
      <point x="296" y="605" type="curve" smooth="yes"/>
      <point x="280" y="614"/>
      <point x="261" y="604"/>
    </contour>
  </outline>
</glyph>
<glyph name="rcommaaccent" format="1">
  <advance width="275"/>
  <unicode hex="0157"/>
  <outline>
    <contour>
      <point x="268" y="417" type="curve" name="hr00"/>
      <point x="272" y="461" type="line"/>
      <point x="272" y="461"/>
      <point x="253" y="465"/>
      <point x="231" y="464" type="curve" smooth="yes"/>
      <point x="165" y="461"/>
      <point x="121" y="444"/>
      <point x="76" y="424" type="curve"/>
      <point x="76" y="454" type="line"/>
      <point x="25" y="454" type="line"/>
      <point x="25" y="0" type="line"/>
      <point x="76" y="0" type="line"/>
      <point x="76" y="371" type="line"/>
      <point x="110" y="394"/>
      <point x="178" y="415"/>
      <point x="230" y="418" type="curve" smooth="yes"/>
      <point x="249" y="419"/>
      <point x="268" y="417"/>
    </contour>
    <contour>
      <point x="12" y="-180" type="curve"/>
      <point x="28" y="-191" type="line"/>
      <point x="46" y="-174"/>
      <point x="76" y="-139"/>
      <point x="76" y="-82" type="curve" smooth="yes"/>
      <point x="76" y="-64"/>
      <point x="62" y="-51"/>
      <point x="45" y="-51" type="curve" smooth="yes"/>
      <point x="29" y="-51"/>
      <point x="15" y="-65"/>
      <point x="15" y="-82" type="curve" smooth="yes"/>
      <point x="15" y="-97"/>
      <point x="26" y="-109"/>
      <point x="40" y="-112" type="curve"/>
      <point x="38" y="-131"/>
      <point x="31" y="-156"/>
    </contour>
  </outline>
</glyph>
<glyph name="Scircumflex" format="1">
  <advance width="452"/>
  <unicode hex="015C"/>
  <outline>
    <contour>
      <point x="366" y="562" type="curve" name="hr00"/>
      <point x="383" y="609" type="line"/>
      <point x="340" y="632"/>
      <point x="287" y="644"/>
      <point x="235" y="644" type="curve"/>
      <point x="184" y="643"/>
      <point x="135" y="631"/>
      <point x="99" y="605" type="curve" smooth="yes"/>
      <point x="66" y="581"/>
      <point x="44" y="546"/>
      <point x="41" y="498" type="curve" smooth="yes"/>
      <point x="36" y="407"/>
      <point x="103" y="366"/>
      <point x="179" y="333" type="curve" smooth="yes"/>
      <point x="209" y="320"/>
      <point x="241" y="308"/>
      <point x="270" y="295" type="curve" smooth="yes"/>
      <point x="335" y="266"/>
      <point x="388" y="231"/>
      <point x="384" y="161" type="curve"/>
      <point x="383" y="128"/>
      <point x="371" y="102"/>
      <point x="352" y="83" type="curve" smooth="yes"/>
      <point x="321" y="51"/>
      <point x="271" y="38"/>
      <point x="221" y="38" type="curve" smooth="yes"/>
      <point x="170" y="38"/>
      <point x="130" y="57"/>
      <point x="104" y="76" type="curve" smooth="yes"/>
      <point x="61" y="109"/>
      <point x="51" y="146"/>
      <point x="51" y="146" type="curve"/>
      <point x="9" y="120" type="line"/>
      <point x="9" y="120"/>
      <point x="26" y="71"/>
      <point x="79" y="32" type="curve" smooth="yes"/>
      <point x="112" y="9"/>
      <point x="159" y="-11"/>
      <point x="225" y="-11" type="curve" smooth="yes"/>
      <point x="283" y="-11"/>
      <point x="342" y="4"/>
      <point x="383" y="39" type="curve" smooth="yes"/>
      <point x="415" y="67"/>
      <point x="437" y="107"/>
      <point x="439" y="163" type="curve" smooth="yes"/>
      <point x="442" y="256"/>
      <point x="372" y="304"/>
      <point x="294" y="339" type="curve" smooth="yes"/>
      <point x="262" y="354"/>
      <point x="228" y="367"/>
      <point x="198" y="380" type="curve" smooth="yes"/>
      <point x="138" y="406"/>
      <point x="91" y="436"/>
      <point x="93" y="492" type="curve" smooth="yes"/>
      <point x="95" y="527"/>
      <point x="112" y="552"/>
      <point x="136" y="568" type="curve" smooth="yes"/>
      <point x="162" y="586"/>
      <point x="198" y="595"/>
      <point x="236" y="595" type="curve" smooth="yes"/>
      <point x="281" y="595"/>
      <point x="329" y="583"/>
    </contour>
    <contour>
      <point x="223" y="768" type="line"/>
      <point x="304" y="688" type="line"/>
      <point x="339" y="723" type="line"/>
      <point x="223" y="837" type="line"/>
      <point x="103" y="721" type="line"/>
      <point x="138" y="687" type="line"/>
    </contour>
  </outline>
</glyph>
<glyph name="caron" format="1">
  <advance width="380"/>
  <unicode hex="02C7"/>
  <outline>
    <contour>
      <point x="290" y="650" type="line" name="hr00"/>
      <point x="255" y="684" type="line"/>
      <point x="170" y="603" type="line"/>
      <point x="89" y="683" type="line"/>
      <point x="54" y="648" type="line"/>
      <point x="170" y="534" type="line"/>
    </contour>
  </outline>
</glyph>
<glyph name="dieresistonos" format="1">
  <advance width="345"/>
  <unicode hex="0385"/>
  <outline>
    <contour>
      <point x="130" y="627" type="curve" smooth="yes"/>
      <point x="130" y="644"/>
      <point x="116" y="657"/>
      <point x="100" y="657" type="curve" smooth="yes"/>
      <point x="83" y="657"/>
      <point x="69" y="644"/>
      <point x="69" y="627" type="curve" smooth="yes"/>
      <point x="69" y="610"/>
      <point x="83" y="597"/>
      <point x="100" y="597" type="curve" smooth="yes"/>
      <point x="116" y="597"/>
      <point x="130" y="610"/>
    </contour>
    <contour>
      <point x="274" y="627" type="curve" smooth="yes"/>
      <point x="274" y="644"/>
      <point x="260" y="657"/>
      <point x="243" y="657" type="curve" smooth="yes"/>
      <point x="226" y="657"/>
      <point x="213" y="644"/>
      <point x="213" y="627" type="curve" smooth="yes"/>
      <point x="213" y="610"/>
      <point x="226" y="597"/>
      <point x="243" y="597" type="curve" smooth="yes"/>
      <point x="260" y="597"/>
      <point x="274" y="610"/>
    </contour>
    <contour>
      <point x="228" y="739" type="line" name="hr01"/>
      <point x="239" y="752"/>
      <point x="238" y="773"/>
      <point x="222" y="782" type="curve" smooth="yes"/>
      <point x="206" y="791"/>
      <point x="187" y="781"/>
      <point x="182" y="764" type="curve"/>
      <point x="147" y="667" type="line"/>
      <point x="180" y="667" type="line"/>
    </contour>
  </outline>
</glyph>
<glyph name="Iotatonos" format="1">
  <advance width="198"/>
  <unicode hex="038A"/>
  <outline>
    <contour>
      <point x="128" y="0" type="line"/>
      <point x="178" y="0" type="line"/>
      <point x="178" y="635" type="line"/>
      <point x="66" y="635" type="line"/>
      <point x="66" y="590" type="line"/>
      <point x="128" y="588" type="line"/>
    </contour>
    <contour>
      <point x="20" y="731" type="curve" name="hr01"/>
      <point x="-14" y="634" type="line"/>
      <point x="18" y="634" type="line"/>
      <point x="66" y="706" type="line"/>
      <point x="78" y="719"/>
      <point x="76" y="740"/>
      <point x="60" y="749" type="curve" smooth="yes"/>
      <point x="44" y="758"/>
      <point x="26" y="748"/>
    </contour>
  </outline>
</glyph>
<glyph name="Omegatonos" format="1">
  <advance width="496"/>
  <unicode hex="038F"/>
  <outline>
    <contour>
      <point x="470" y="178" type="curve"/>
      <point x="470" y="456" type="line" smooth="yes"/>
      <point x="470" y="567"/>
      <point x="413" y="641"/>
      <point x="299" y="641" type="curve" smooth="yes"/>
      <point x="198" y="641" type="line" smooth="yes"/>
      <point x="85" y="641"/>
      <point x="27" y="567"/>
      <point x="27" y="456" type="curve" smooth="yes"/>
      <point x="27" y="178" type="line" smooth="yes"/>
      <point x="27" y="116"/>
      <point x="48" y="72"/>
      <point x="90" y="46" type="curve"/>
      <point x="31" y="46" type="line"/>
      <point x="16" y="0" type="line"/>
      <point x="222" y="0" type="line"/>
      <point x="222" y="46" type="line"/>
      <point x="168" y="46"/>
      <point x="124" y="72"/>
      <point x="107" y="91" type="curve" smooth="yes"/>
      <point x="88" y="112"/>
      <point x="78" y="141"/>
      <point x="78" y="178" type="curve" smooth="yes"/>
      <point x="78" y="465" type="line" smooth="yes"/>
      <point x="78" y="546"/>
      <point x="126" y="595"/>
      <point x="198" y="595" type="curve" smooth="yes"/>
      <point x="299" y="595" type="line" smooth="yes"/>
      <point x="371" y="595"/>
      <point x="419" y="546"/>
      <point x="419" y="465" type="curve" smooth="yes"/>
      <point x="419" y="178" type="line" smooth="yes"/>
      <point x="419" y="129"/>
      <point x="402" y="94"/>
      <point x="368" y="74" type="curve" smooth="yes"/>
      <point x="352" y="64"/>
      <point x="315" y="46"/>
      <point x="275" y="46" type="curve"/>
      <point x="275" y="0" type="line"/>
      <point x="482" y="0" type="line"/>
      <point x="466" y="46" type="line"/>
      <point x="404" y="46" type="line"/>
      <point x="448" y="73"/>
      <point x="470" y="117"/>
    </contour>
    <contour>
      <point x="52" y="738" type="curve" name="hr01"/>
      <point x="17" y="641" type="line"/>
      <point x="49" y="641" type="line"/>
      <point x="98" y="713" type="line"/>
      <point x="109" y="726"/>
      <point x="108" y="747"/>
      <point x="92" y="756" type="curve" smooth="yes"/>
      <point x="76" y="765"/>
      <point x="57" y="755"/>
    </contour>
  </outline>
</glyph>
<glyph name="Gamma" format="1">
  <advance width="307"/>
  <unicode hex="0393"/>
  <outline>
    <contour>
      <point x="71" y="586" type="line" name="hr00"/>
      <point x="323" y="586" type="line"/>
      <point x="323" y="635" type="line"/>
      <point x="20" y="635" type="line"/>
      <point x="20" y="0" type="line"/>
      <point x="71" y="0" type="line"/>
    </contour>
  </outline>
</glyph>
<glyph name="Mu" format="1">
  <advance width="527"/>
  <unicode hex="039C"/>
  <outline>
    <contour>
      <point x="20" y="0" type="line"/>
      <point x="71" y="0" type="line"/>
      <point x="71" y="485" type="line"/>
      <point x="235" y="0" type="line"/>
      <point x="290" y="0" type="line"/>
      <point x="455" y="485" type="line"/>
      <point x="455" y="0" type="line"/>
      <point x="506" y="0" type="line"/>
      <point x="506" y="635" type="line"/>
      <point x="455" y="635" type="line"/>
      <point x="262" y="78" type="line" name="hr01"/>
      <point x="71" y="635" type="line"/>
      <point x="20" y="635" type="line"/>
    </contour>
  </outline>
</glyph>
<glyph name="Pi" format="1">
  <advance width="431"/>
  <unicode hex="03A0"/>
  <outline>
    <contour>
      <point x="410" y="635" type="line" name="hr00"/>
      <point x="20" y="635" type="line"/>
      <point x="20" y="0" type="line"/>
      <point x="71" y="0" type="line"/>
      <point x="71" y="583" type="line"/>
      <point x="358" y="583" type="line"/>
      <point x="358" y="0" type="line"/>
      <point x="410" y="0" type="line"/>
    </contour>
  </outline>
</glyph>
<glyph name="Chi" format="1">
  <advance width="472"/>
  <unicode hex="03A7"/>
  <outline>
    <contour>
      <point x="24" y="635" type="line" name="hr00"/>
      <point x="207" y="319" type="line"/>
      <point x="7" y="0" type="line"/>
      <point x="69" y="0" type="line"/>
      <point x="237" y="266" type="line"/>
      <point x="404" y="0" type="line"/>
      <point x="466" y="0" type="line"/>
      <point x="268" y="319" type="line"/>
      <point x="452" y="635" type="line"/>
      <point x="395" y="635" type="line"/>
      <point x="237" y="368" type="line"/>
      <point x="81" y="635" type="line"/>
    </contour>
  </outline>
</glyph>
<glyph name="Omegagreek" format="1">
  <advance width="494"/>
  <unicode hex="03A9"/>
  <outline>
    <contour>
      <point x="468" y="176" type="curve" name="hr00"/>
      <point x="468" y="455" type="line" smooth="yes"/>
      <point x="468" y="566"/>
      <point x="411" y="640"/>
      <point x="298" y="640" type="curve" smooth="yes"/>
      <point x="196" y="640" type="line" smooth="yes"/>
      <point x="83" y="640"/>
      <point x="26" y="566"/>
      <point x="26" y="455" type="curve" smooth="yes"/>
      <point x="26" y="176" type="line" smooth="yes"/>
      <point x="26" y="115"/>
      <point x="47" y="71"/>
      <point x="88" y="45" type="curve"/>
      <point x="30" y="45" type="line"/>
      <point x="14" y="-1" type="line"/>
      <point x="221" y="-1" type="line"/>
      <point x="221" y="45" type="line"/>
      <point x="166" y="45"/>
      <point x="122" y="70"/>
      <point x="106" y="89" type="curve" smooth="yes"/>
      <point x="87" y="111"/>
      <point x="77" y="140"/>
      <point x="77" y="176" type="curve" smooth="yes"/>
      <point x="77" y="464" type="line" smooth="yes"/>
      <point x="77" y="544"/>
      <point x="125" y="593"/>
      <point x="196" y="593" type="curve" smooth="yes"/>
      <point x="298" y="593" type="line" smooth="yes"/>
      <point x="370" y="593"/>
      <point x="418" y="544"/>
      <point x="418" y="464" type="curve" smooth="yes"/>
      <point x="418" y="176" type="line" smooth="yes"/>
      <point x="418" y="127"/>
      <point x="400" y="93"/>
      <point x="367" y="73" type="curve" smooth="yes"/>
      <point x="350" y="63"/>
      <point x="313" y="45"/>
      <point x="273" y="45" type="curve"/>
      <point x="273" y="-1" type="line"/>
      <point x="480" y="-1" type="line"/>
      <point x="465" y="45" type="line"/>
      <point x="402" y="45" type="line"/>
      <point x="447" y="72"/>
      <point x="468" y="116"/>
    </contour>
  </outline>
</glyph>
<glyph name="alphatonos" format="1">
  <advance width="363"/>
  <unicode hex="03AC"/>
  <outline>
    <contour>
      <point x="348" y="441" type="curve" name="hr00"/>
      <point x="308" y="460" type="line"/>
      <point x="301" y="444"/>
      <point x="296" y="421"/>
      <point x="296" y="421" type="curve"/>
      <point x="247" y="445"/>
      <point x="193" y="460"/>
      <point x="145" y="460" type="curve" smooth="yes"/>
      <point x="76" y="460"/>
      <point x="11" y="428"/>
      <point x="11" y="321" type="curve" smooth="yes"/>
      <point x="11" y="153" type="line" smooth="yes"/>
      <point x="11" y="17"/>
      <point x="101" y="-6"/>
      <point x="187" y="-4" type="curve"/>
      <point x="229" y="-2"/>
      <point x="342" y="4"/>
      <point x="342" y="4" type="curve"/>
      <point x="342" y="363" type="line" smooth="yes"/>
      <point x="342" y="406"/>
      <point x="348" y="441"/>
    </contour>
    <contour>
      <point x="61" y="147" type="curve"/>
      <point x="61" y="318" type="line" smooth="yes"/>
      <point x="61" y="407"/>
      <point x="114" y="415"/>
      <point x="143" y="413" type="curve"/>
      <point x="179" y="413"/>
      <point x="229" y="401"/>
      <point x="291" y="376" type="curve"/>
      <point x="291" y="46" type="line"/>
      <point x="291" y="46"/>
      <point x="234" y="42"/>
      <point x="169" y="42" type="curve" smooth="yes"/>
      <point x="97" y="42"/>
      <point x="61" y="79"/>
    </contour>
    <contour>
      <point x="190" y="597" type="curve"/>
      <point x="156" y="500" type="line"/>
      <point x="188" y="500" type="line"/>
      <point x="236" y="572" type="line"/>
      <point x="248" y="585"/>
      <point x="246" y="606"/>
      <point x="230" y="615" type="curve" smooth="yes"/>
      <point x="214" y="624"/>
      <point x="196" y="614"/>
    </contour>
  </outline>
</glyph>
<glyph name="etatonos" format="1">
  <advance width="367"/>
  <unicode hex="03AE"/>
  <outline>
    <contour>
      <point x="301" y="311" type="curve" name="hr00"/>
      <point x="301" y="-169" type="line"/>
      <point x="351" y="-190" type="line"/>
      <point x="351" y="314" type="line" smooth="yes"/>
      <point x="351" y="409"/>
      <point x="293" y="462"/>
      <point x="193" y="462" type="curve" smooth="yes"/>
      <point x="148" y="462"/>
      <point x="102" y="447"/>
      <point x="67" y="423" type="curve"/>
      <point x="67" y="454" type="line"/>
      <point x="16" y="454" type="line"/>
      <point x="16" y="0" type="line"/>
      <point x="67" y="0" type="line"/>
      <point x="67" y="385" type="line"/>
      <point x="104" y="406"/>
      <point x="142" y="416"/>
      <point x="183" y="416" type="curve" smooth="yes"/>
      <point x="241" y="416"/>
      <point x="301" y="393"/>
    </contour>
    <contour>
      <point x="206" y="595" type="curve"/>
      <point x="172" y="498" type="line"/>
      <point x="204" y="498" type="line"/>
      <point x="252" y="570" type="line"/>
      <point x="264" y="583"/>
      <point x="262" y="604"/>
      <point x="246" y="613" type="curve" smooth="yes"/>
      <point x="230" y="622"/>
      <point x="212" y="612"/>
    </contour>
  </outline>
</glyph>
<glyph name="psi" format="1">
  <advance width="504"/>
  <unicode hex="03C8"/>
  <outline>
    <contour>
      <point x="461" y="458" type="curve" name="hr00"/>
      <point x="407" y="443" type="line"/>
      <point x="435" y="420"/>
      <point x="439" y="389"/>
      <point x="439" y="351" type="curve" smooth="yes"/>
      <point x="439" y="162" type="line" smooth="yes"/>
      <point x="439" y="82"/>
      <point x="392" y="39"/>
      <point x="319" y="39" type="curve" smooth="yes"/>
      <point x="279" y="39" type="line"/>
      <point x="279" y="453" type="line"/>
      <point x="227" y="453" type="line"/>
      <point x="227" y="39" type="line"/>
      <point x="182" y="39" type="line" smooth="yes"/>
      <point x="110" y="39"/>
      <point x="61" y="82"/>
      <point x="61" y="162" type="curve" smooth="yes"/>
      <point x="61" y="453" type="line"/>
      <point x="13" y="453" type="line"/>
      <point x="13" y="171" type="line" smooth="yes"/>
      <point x="13" y="62"/>
      <point x="67" y="-6"/>
      <point x="182" y="-6" type="curve" smooth="yes"/>
      <point x="227" y="-6" type="line"/>
      <point x="227" y="-184" type="line"/>
      <point x="279" y="-196" type="line"/>
      <point x="279" y="-6" type="line"/>
      <point x="319" y="-6" type="line" smooth="yes"/>
      <point x="434" y="-6"/>
      <point x="490" y="62"/>
      <point x="490" y="171" type="curve" smooth="yes"/>
      <point x="490" y="351" type="line" smooth="yes"/>
      <point x="490" y="396"/>
      <point x="486" y="428"/>
    </contour>
  </outline>
</glyph>
<glyph name="omega" format="1">
  <advance width="506"/>
  <unicode hex="03C9"/>
  <outline>
    <contour>
      <point x="396" y="452" type="curve" name="hr00"/>
      <point x="367" y="412" type="line"/>
      <point x="417" y="397"/>
      <point x="442" y="358"/>
      <point x="442" y="295" type="curve" smooth="yes"/>
      <point x="442" y="160" type="line" smooth="yes"/>
      <point x="442" y="76"/>
      <point x="402" y="36"/>
      <point x="350" y="36" type="curve" smooth="yes"/>
      <point x="299" y="36"/>
      <point x="279" y="70"/>
      <point x="279" y="142" type="curve" smooth="yes"/>
      <point x="279" y="269" type="line"/>
      <point x="227" y="269" type="line"/>
      <point x="227" y="142" type="line"/>
      <point x="224" y="70"/>
      <point x="205" y="36"/>
      <point x="154" y="36" type="curve" smooth="yes"/>
      <point x="103" y="36"/>
      <point x="61" y="76"/>
      <point x="61" y="160" type="curve" smooth="yes"/>
      <point x="61" y="295" type="line" smooth="yes"/>
      <point x="61" y="358"/>
      <point x="87" y="397"/>
      <point x="137" y="412" type="curve"/>
      <point x="109" y="452" type="line"/>
      <point x="44" y="428"/>
      <point x="10" y="372"/>
      <point x="10" y="286" type="curve" smooth="yes"/>
      <point x="10" y="169" type="line" smooth="yes"/>
      <point x="10" y="49"/>
      <point x="60" y="-12"/>
      <point x="157" y="-12" type="curve" smooth="yes"/>
      <point x="198" y="-12"/>
      <point x="230" y="4"/>
      <point x="253" y="36" type="curve"/>
      <point x="273" y="4"/>
      <point x="305" y="-12"/>
      <point x="348" y="-12" type="curve" smooth="yes"/>
      <point x="445" y="-12"/>
      <point x="493" y="49"/>
      <point x="493" y="169" type="curve" smooth="yes"/>
      <point x="493" y="286" type="line" smooth="yes"/>
      <point x="493" y="372"/>
      <point x="461" y="428"/>
    </contour>
  </outline>
</glyph>
<glyph name="omegatonos" format="1">
  <advance width="505"/>
  <unicode hex="03CE"/>
  <outline>
    <contour>
      <point x="396" y="452" type="curve" name="hr00"/>
      <point x="367" y="412" type="line"/>
      <point x="417" y="397"/>
      <point x="442" y="358"/>
      <point x="442" y="295" type="curve" smooth="yes"/>
      <point x="442" y="160" type="line" smooth="yes"/>
      <point x="442" y="76"/>
      <point x="402" y="36"/>
      <point x="350" y="36" type="curve" smooth="yes"/>
      <point x="299" y="36"/>
      <point x="279" y="70"/>
      <point x="279" y="142" type="curve" smooth="yes"/>
      <point x="279" y="269" type="line"/>
      <point x="227" y="269" type="line"/>
      <point x="227" y="142" type="line"/>
      <point x="224" y="70"/>
      <point x="205" y="36"/>
      <point x="154" y="36" type="curve" smooth="yes"/>
      <point x="103" y="36"/>
      <point x="61" y="76"/>
      <point x="61" y="160" type="curve" smooth="yes"/>
      <point x="61" y="295" type="line" smooth="yes"/>
      <point x="61" y="358"/>
      <point x="87" y="397"/>
      <point x="137" y="412" type="curve"/>
      <point x="109" y="452" type="line"/>
      <point x="44" y="428"/>
      <point x="10" y="372"/>
      <point x="10" y="286" type="curve" smooth="yes"/>
      <point x="10" y="169" type="line" smooth="yes"/>
      <point x="10" y="49"/>
      <point x="60" y="-12"/>
      <point x="157" y="-12" type="curve" smooth="yes"/>
      <point x="198" y="-12"/>
      <point x="230" y="4"/>
      <point x="253" y="36" type="curve"/>
      <point x="273" y="4"/>
      <point x="305" y="-12"/>
      <point x="348" y="-12" type="curve" smooth="yes"/>
      <point x="445" y="-12"/>
      <point x="493" y="49"/>
      <point x="493" y="169" type="curve" smooth="yes"/>
      <point x="493" y="286" type="line" smooth="yes"/>
      <point x="493" y="372"/>
      <point x="461" y="428"/>
    </contour>
    <contour>
      <point x="276" y="595" type="curve"/>
      <point x="242" y="498" type="line"/>
      <point x="274" y="498" type="line"/>
      <point x="322" y="570" type="line"/>
      <point x="334" y="583"/>
      <point x="332" y="604"/>
      <point x="316" y="613" type="curve" smooth="yes"/>
      <point x="300" y="622"/>
      <point x="282" y="612"/>
    </contour>
  </outline>
</glyph>
<glyph name="ellipsis" format="1">
  <advance width="415"/>
  <unicode hex="2026"/>
  <outline>
    <contour>
      <point x="47" y="57" type="curve" name="hr00" smooth="yes"/>
      <point x="30" y="57"/>
      <point x="17" y="43"/>
      <point x="17" y="26" type="curve" smooth="yes"/>
      <point x="17" y="10"/>
      <point x="30" y="-4"/>
      <point x="47" y="-4" type="curve" smooth="yes"/>
      <point x="64" y="-4"/>
      <point x="77" y="10"/>
      <point x="77" y="26" type="curve" smooth="yes"/>
      <point x="77" y="43"/>
      <point x="64" y="57"/>
    </contour>
    <contour>
      <point x="206" y="57" type="curve" smooth="yes"/>
      <point x="189" y="57"/>
      <point x="175" y="43"/>
      <point x="175" y="26" type="curve" smooth="yes"/>
      <point x="175" y="10"/>
      <point x="189" y="-4"/>
      <point x="206" y="-4" type="curve" smooth="yes"/>
      <point x="222" y="-4"/>
      <point x="236" y="10"/>
      <point x="236" y="26" type="curve" smooth="yes"/>
      <point x="236" y="43"/>
      <point x="222" y="57"/>
    </contour>
    <contour>
      <point x="368" y="57" type="curve" smooth="yes"/>
      <point x="351" y="57"/>
      <point x="338" y="43"/>
      <point x="338" y="26" type="curve" smooth="yes"/>
      <point x="338" y="10"/>
      <point x="351" y="-4"/>
      <point x="368" y="-4" type="curve" smooth="yes"/>
      <point x="385" y="-4"/>
      <point x="398" y="10"/>
      <point x="398" y="26" type="curve" smooth="yes"/>
      <point x="398" y="43"/>
      <point x="385" y="57"/>
    </contour>
  </outline>
</glyph>
<glyph name="guilsinglleft" format="1">
  <advance width="236"/>
  <unicode hex="2039"/>
  <outline>
    <contour>
      <point x="217" y="103" type="line" name="hr00"/>
      <point x="83" y="242" type="line"/>
      <point x="219" y="378" type="line"/>
      <point x="185" y="412" type="line"/>
      <point x="16" y="242" type="line"/>
      <point x="185" y="72" type="line"/>
    </contour>
  </outline>
</glyph>
<glyph name="fraction" format="1">
  <advance width="372"/>
  <unicode hex="2044"/>
  <outline>
    <contour>
      <point x="359" y="741" type="line" name="hr00"/>
      <point x="303" y="741" type="line"/>
      <point x="13" y="-103" type="line"/>
      <point x="65" y="-103" type="line"/>
    </contour>
  </outline>
</glyph>
<glyph name="ffl" format="1">
  <advance width="507"/>
  <unicode hex="FB04"/>
  <outline>
    <contour>
      <point x="436" y="570" type="curve" name="hr00"/>
      <point x="436" y="0" type="line"/>
      <point x="487" y="0" type="line"/>
      <point x="487" y="604" type="line"/>
      <point x="451" y="627"/>
      <point x="415" y="639"/>
      <point x="372" y="639" type="curve" smooth="yes"/>
      <point x="328" y="639"/>
      <point x="293" y="626"/>
      <point x="268" y="602" type="curve"/>
      <point x="233" y="627"/>
      <point x="192" y="640"/>
      <point x="148" y="640" type="curve" smooth="yes"/>
      <point x="103" y="640"/>
      <point x="19" y="607"/>
      <point x="19" y="508" type="curve" smooth="yes"/>
      <point x="19" y="339"/>
      <point x="19" y="169"/>
      <point x="19" y="0" type="curve"/>
      <point x="70" y="0" type="line"/>
      <point x="70" y="405" type="line"/>
      <point x="153" y="405" type="line"/>
      <point x="160" y="421"/>
      <point x="167" y="437"/>
      <point x="174" y="453" type="curve"/>
      <point x="70" y="453" type="line"/>
      <point x="70" y="468"/>
      <point x="70" y="483"/>
      <point x="70" y="498" type="curve" smooth="yes"/>
      <point x="70" y="570"/>
      <point x="110" y="597"/>
      <point x="166" y="591" type="curve" smooth="yes"/>
      <point x="189" y="589"/>
      <point x="214" y="578"/>
      <point x="241" y="562" type="curve"/>
      <point x="234" y="545"/>
      <point x="227" y="527"/>
      <point x="227" y="508" type="curve" smooth="yes"/>
      <point x="227" y="339"/>
      <point x="227" y="169"/>
      <point x="227" y="0" type="curve"/>
      <point x="282" y="0" type="line"/>
      <point x="282" y="405" type="line"/>
      <point x="364" y="405" type="line"/>
      <point x="371" y="421"/>
      <point x="378" y="437"/>
      <point x="385" y="453" type="curve"/>
      <point x="282" y="453" type="line"/>
      <point x="282" y="505" type="line" smooth="yes"/>
      <point x="282" y="537"/>
      <point x="297" y="562"/>
      <point x="327" y="578" type="curve" smooth="yes"/>
      <point x="352" y="592"/>
      <point x="388" y="595"/>
    </contour>
  </outline>
</glyph>
